<svg version="1.1" id="Layer_1" xmlns="http://www.w3.org/2000/svg" xmlns:xlink="http://www.w3.org/1999/xlink" x="0px" y="0px"
	 width="100%" viewBox="0 0 333 333" enable-background="new 0 0 333 333" xml:space="preserve">
<path fill="#1E5078" opacity="1.000000" stroke="none" 
	d="
M189.067139,246.979095 
	C182.543671,251.732758 176.251801,256.851471 169.450134,261.166595 
	C153.639816,271.197021 136.365799,276.345856 117.500290,277.159821 
	C97.892929,278.005829 79.325058,274.671936 62.128345,265.462067 
	C32.203716,249.435608 12.944140,224.984482 5.936008,191.432877 
	C0.573422,165.759369 3.551915,141.006149 16.131435,118.010834 
	C33.173244,86.858444 59.294815,67.739380 94.656319,61.995876 
	C120.361687,57.820747 144.537735,62.517273 167.507050,75.374802 
	C163.357727,79.018478 158.845566,82.108246 154.684906,85.615082 
	C152.254700,87.663391 150.386215,90.378159 147.890289,92.789574 
	C133.336594,85.453911 117.997238,83.458618 102.556648,85.297684 
	C82.641678,87.669685 65.369019,96.184029 51.335678,111.058990 
	C31.439743,132.148148 24.101892,157.209473 29.456629,185.157410 
	C34.599827,212.001251 50.437786,231.905945 74.936508,244.410202 
	C91.738640,252.986084 109.688538,255.109741 128.080444,251.671036 
	C134.562424,250.459106 140.672012,247.255417 147.259766,244.956390 
	C148.068039,244.660278 148.568176,244.368896 149.425034,244.022583 
	C202.478851,218.375519 213.543472,146.457001 168.073868,105.539978 
	C174.545395,99.403450 181.135361,93.970352 189.934357,92.232841 
	C201.478195,105.543159 211.133453,119.852547 216.202957,137.069427 
	C223.466446,161.737473 222.450058,185.865433 213.088821,209.726532 
	C208.331818,221.851761 201.636429,232.735962 192.484665,242.073761 
	C191.226654,243.357346 190.302307,244.967972 189.103287,246.704926 
	C188.983093,246.982666 189.067139,246.979095 189.067139,246.979095 
z"/>
<path fill="#7293AD" opacity="1.000000" stroke="none" 
	d="
M257.964050,254.148422 
	C257.023346,251.690826 256.120819,249.620575 255.411682,247.994003 
	C265.059784,241.622086 274.527679,235.369186 284.503052,228.781143 
	C289.223633,233.904205 294.674896,239.820282 300.088776,245.695801 
	C294.309235,253.314301 279.647949,263.112000 263.990601,269.826874 
	C261.992096,264.723755 259.997162,259.629761 257.964050,254.148422 
z"/>
<path fill="#7293AD" opacity="1.000000" stroke="none" 
	d="
M289.247589,116.744141 
	C287.397614,114.410187 285.803558,112.335228 283.741455,109.651016 
	C289.094971,104.667503 294.548615,99.482384 300.191650,94.512344 
	C300.731659,94.036743 302.785797,94.519562 303.573059,95.205101 
	C310.194672,100.971375 322.056061,120.621674 324.646423,130.022217 
	C318.476288,132.353012 312.166443,134.481552 306.087921,137.139160 
	C302.998230,138.490036 301.841522,137.588715 300.361206,134.941589 
	C296.951843,128.844742 293.147552,122.968750 289.247589,116.744141 
z"/>
<path fill="#7293AD" opacity="1.000000" stroke="none" 
	d="
M224.000458,72.174667 
	C224.430191,67.965919 224.859955,64.233017 225.247223,60.869106 
	C239.929733,60.441376 253.699875,63.731548 267.443329,69.600212 
	C264.033417,77.129921 260.757172,84.364403 257.766449,90.968437 
	C246.775726,88.533287 235.913834,86.126686 224.000458,83.487106 
	C224.000458,80.792328 224.000458,76.721420 224.000458,72.174667 
z"/>
<path fill="#7293AD" opacity="1.000000" stroke="none" 
	d="
M188.981323,247.024689 
	C193.992264,248.375259 198.950943,249.974396 204.031326,250.919067 
	C210.435287,252.109863 216.938614,252.766312 224.092178,253.748444 
	C223.644943,261.418427 223.178970,269.409973 222.713364,277.394958 
	C208.308456,277.207306 194.345001,275.143158 181.036087,268.826111 
	C183.758347,261.638733 186.386581,254.699585 189.040985,247.369751 
	C189.067139,246.979095 188.983093,246.982666 188.981323,247.024689 
z"/>
<path fill="#7293AD" opacity="1.000000" stroke="none" 
	d="
M325.981934,168.999573 
	C328.089355,168.999588 329.723999,168.999588 331.903534,168.999588 
	C332.553436,183.910034 329.161804,197.603775 323.734802,211.080200 
	C316.088776,208.021973 308.878174,205.137894 302.022064,202.395599 
	C304.403320,191.017410 306.742523,179.840225 309.249329,167.862076 
	C314.147827,168.204758 319.828491,168.602173 325.981934,168.999573 
z"/>
<path fill="#7192AC" opacity="1.000000" stroke="none" 
	d="
M148.264999,92.793076 
	C150.386215,90.378159 152.254700,87.663391 154.684906,85.615082 
	C158.845566,82.108246 163.357727,79.018478 167.865356,75.456314 
	C172.956818,72.751259 177.905197,70.343460 183.514267,67.614174 
	C186.391693,74.687393 189.257706,81.492615 191.848816,88.400948 
	C192.178528,89.280029 191.071365,90.698029 190.282104,92.049599 
	C181.135361,93.970352 174.545395,99.403450 167.768738,105.696404 
	C166.210739,107.217216 165.074707,108.271736 163.879181,109.381462 
	C158.372192,103.530884 153.318604,98.161980 148.264999,92.793076 
z"/>
<path fill="#7293AD" opacity="1.000000" stroke="none" 
	d="
M148.538986,243.063873 
	C147.908981,243.704407 147.501556,244.092438 147.064606,244.761169 
	C143.545898,241.709900 139.367691,238.845673 136.718811,234.943344 
	C131.997650,227.988129 128.270660,220.364243 123.983604,213.105194 
	C122.249817,210.169464 123.143806,208.557938 126.034752,207.449966 
	C132.226425,205.076965 138.406860,202.674561 144.054550,200.491867 
	C150.430359,210.167679 156.666885,219.632111 163.229630,229.591614 
	C158.975220,233.478943 153.868393,238.145157 148.538986,243.063873 
z"/>
<path fill="#7293AD" opacity="1.000000" stroke="none" 
	d="
M117.997581,142.094391 
	C119.751106,136.453247 121.491867,131.232819 123.401581,125.505730 
	C131.214005,128.981934 138.581512,132.260162 144.999542,135.115921 
	C142.565781,146.477905 140.226883,157.396927 137.706131,169.164978 
	C130.900253,168.751633 123.246178,168.286758 114.072914,167.729630 
	C115.408783,159.119156 116.696800,150.817139 117.997581,142.094391 
z"/>
</svg>